0
SECTION
2
HEADER
9
$INSUNITS
70
6
0
ENDSEC
0
SECTION
2
TABLES
0
TABLE
2
LAYER
0
LAYER
2
KAVLING
70
0
62
3
6
CONTINUOUS
0
LAYER
2
JALAN
70
0
62
8
6
CONTINUOUS
0
LAYER
2
BATAS
70
0
62
1
6
CONTINUOUS
0
LAYER
2
TEKS
70
0
62
7
6
CONTINUOUS
0
LAYER
2
LANSKAP
70
0
62
4
6
CONTINUOUS
0
ENDTAB
0
ENDSEC
0
SECTION
2
BLOCKS
0
BLOCK
8
0
2
POHON
70
0
10
0
20
0
0
CIRCLE
8
0
10
0
20
0
40
1.6
0
LINE
8
0
10
-1.6
20
0
11
1.6
21
0
0
LINE
8
0
10
0
20
-1.6
11
0
21
1.6
0
ENDBLK
0
ENDSEC
0
SECTION
2
ENTITIES
0
POLYLINE
8
BATAS
66
1
70
1
0
VERTEX
8
BATAS
10
0
20
4
42
0
0
VERTEX
8
BATAS
10
224
20
4
42
0
0
VERTEX
8
BATAS
10
224
20
-146
42
0
0
VERTEX
8
BATAS
10
0
20
-146
42
0
0
SEQEND
8
BATAS
0
LINE
8
JALAN
10
14
20
0
11
224
21
0
0
LINE
8
JALAN
10
14
20
-16
11
224
21
-16
0
LINE
8
JALAN
10
14
20
-84
11
224
21
-84
0
LINE
8
JALAN
10
14
20
-94
11
224
21
-94
0
LINE
8
JALAN
10
14
20
4
11
14
21
-146
0
LINE
8
JALAN
10
118
20
-16
11
118
21
-84
0
LINE
8
JALAN
10
126
20
-16
11
126
21
-84
0
TEXT
8
TEKS
10
30
20
-10
40
3
1
BOULEVARD UTAMA
0
TEXT
8
TEKS
10
30
20
-91
40
2.4
1
JALAN LINGKUNGAN
0
TEXT
8
TEKS
10
150
20
-140
40
3
1
SITE PLAN KOMERSIAL (DUMMY) - SKALA 1:500
0
POLYLINE
8
KAVLING
66
1
70
1
0
VERTEX
8
KAVLING
10
130
20
-24
42
-0.4142
0
VERTEX
8
KAVLING
10
134
20
-20
42
0
0
VERTEX
8
KAVLING
10
156
20
-20
42
0
0
VERTEX
8
KAVLING
10
156
20
-45
42
0
0
VERTEX
8
KAVLING
10
130
20
-45
42
0
0
SEQEND
8
KAVLING
0
TEXT
8
TEKS
10
132
20
-32.5
40
4
1
E5A
0
TEXT
8
TEKS
10
132
20
-36.5
40
2
1
650 m2
0
POLYLINE
8
KAVLING
66
1
70
1
0
VERTEX
8
KAVLING
10
158
20
-20
42
0
0
VERTEX
8
KAVLING
10
190.8
20
-20
42
0
0
VERTEX
8
KAVLING
10
190.8
20
-45
42
0
0
VERTEX
8
KAVLING
10
158
20
-45
42
0
0
SEQEND
8
KAVLING
0
TEXT
8
TEKS
10
160
20
-32.5
40
4
1
E5B
0
TEXT
8
TEKS
10
160
20
-36.5
40
2
1
820 m2
0
POLYLINE
8
KAVLING
66
1
70
1
0
VERTEX
8
KAVLING
10
94
20
-20
42
0
0
VERTEX
8
KAVLING
10
116
20
-20
42
0
0
VERTEX
8
KAVLING
10
116
20
-70
42
0
0
VERTEX
8
KAVLING
10
94
20
-70
42
0
0
SEQEND
8
KAVLING
0
TEXT
8
TEKS
10
96
20
-45
40
3.6666666666666665
1
E3
0
TEXT
8
TEKS
10
96
20
-49
40
2
1
1.100 m2
0
POLYLINE
8
KAVLING
66
1
70
1
0
VERTEX
8
KAVLING
10
62
20
-20
42
0
0
VERTEX
8
KAVLING
10
92
20
-20
42
0
0
VERTEX
8
KAVLING
10
92
20
-50
42
0
0
VERTEX
8
KAVLING
10
62
20
-50
42
0
0
SEQEND
8
KAVLING
0
TEXT
8
TEKS
10
64
20
-35
40
4
1
E1
0
TEXT
8
TEKS
10
64
20
-39
40
2
1
900 m2
0
POLYLINE
8
KAVLING
66
1
70
1
0
VERTEX
8
KAVLING
10
62
20
-98
42
0
0
VERTEX
8
KAVLING
10
82
20
-98
42
0
0
VERTEX
8
KAVLING
10
82
20
-122
42
0
0
VERTEX
8
KAVLING
10
62
20
-122
42
0
0
SEQEND
8
KAVLING
0
TEXT
8
TEKS
10
64
20
-110
40
3.3333333333333335
1
C2
0
TEXT
8
TEKS
10
64
20
-114
40
2
1
480 m2
0
POLYLINE
8
KAVLING
66
1
70
1
0
VERTEX
8
KAVLING
10
84
20
-98
42
0
0
VERTEX
8
KAVLING
10
105.7
20
-98
42
0
0
VERTEX
8
KAVLING
10
105.7
20
-122
42
0
0
VERTEX
8
KAVLING
10
84
20
-122
42
0
0
SEQEND
8
KAVLING
0
TEXT
8
TEKS
10
86
20
-110
40
3.6166666666666667
1
C4
0
TEXT
8
TEKS
10
86
20
-114
40
2
1
520 m2
0
POLYLINE
8
KAVLING
66
1
70
1
0
VERTEX
8
KAVLING
10
193
20
-20
42
0
0
VERTEX
8
KAVLING
10
217
20
-20
42
0
0
VERTEX
8
KAVLING
10
217
20
-45
42
0
0
VERTEX
8
KAVLING
10
193
20
-45
42
0
0
SEQEND
8
KAVLING
0
TEXT
8
TEKS
10
195
20
-32.5
40
4
1
E7
0
TEXT
8
TEKS
10
195
20
-36.5
40
2
1
600 m2
0
POLYLINE
8
KAVLING
66
1
70
1
0
VERTEX
8
KAVLING
10
130
20
-98
42
0
0
VERTEX
8
KAVLING
10
155
20
-98
42
0
0
VERTEX
8
KAVLING
10
155
20
-122
42
0
0
VERTEX
8
KAVLING
10
130
20
-122
42
0
0
SEQEND
8
KAVLING
0
TEXT
8
TEKS
10
132
20
-110
40
4
1
C6
0
TEXT
8
TEKS
10
132
20
-114
40
2
1
600 m2
0
POLYLINE
8
KAVLING
66
1
70
1
0
VERTEX
8
KAVLING
10
18
20
-20
42
0
0
VERTEX
8
KAVLING
10
58
20
-20
42
0
0
VERTEX
8
KAVLING
10
58
20
-57.5
42
0
0
VERTEX
8
KAVLING
10
18
20
-57.5
42
0
0
SEQEND
8
KAVLING
0
TEXT
8
TEKS
10
20
20
-38.75
40
4
1
B1
0
TEXT
8
TEKS
10
20
20
-42.75
40
2
1
1.500 m2
0
POLYLINE
8
KAVLING
66
1
70
1
0
VERTEX
8
KAVLING
10
18
20
-98
42
0
0
VERTEX
8
KAVLING
10
58
20
-98
42
0
0
VERTEX
8
KAVLING
10
58
20
-129.25
42
0
0
VERTEX
8
KAVLING
10
18
20
-129.25
42
0
0
SEQEND
8
KAVLING
0
TEXT
8
TEKS
10
20
20
-113.625
40
4
1
B2
0
TEXT
8
TEKS
10
20
20
-117.625
40
2
1
1.250 m2
0
POLYLINE
8
KAVLING
66
1
70
1
0
VERTEX
8
KAVLING
10
157
20
-98
42
0
0
VERTEX
8
KAVLING
10
187
20
-98
42
0
0
VERTEX
8
KAVLING
10
187
20
-122
42
0
0
VERTEX
8
KAVLING
10
157
20
-122
42
0
0
SEQEND
8
KAVLING
0
TEXT
8
TEKS
10
159
20
-110
40
4
1
C8
0
TEXT
8
TEKS
10
159
20
-114
40
2
1
720 m2
0
INSERT
8
LANSKAP
2
POHON
10
70
20
-60
0
INSERT
8
LANSKAP
2
POHON
10
84
20
-60
0
INSERT
8
LANSKAP
2
POHON
10
70
20
-74
0
INSERT
8
LANSKAP
2
POHON
10
84
20
-74
0
INSERT
8
LANSKAP
2
POHON
10
77
20
-67
0
ENDSEC
0
EOF
